<svg data-name="Layer 1" xmlns="http://www.w3.org/2000/svg" width="601.6" height="630" viewBox="0 0 601.6 630"><path fill="#e6e6e6" d="M418.48 78.063l1.154-1.211 79.085 75.294-1.153 1.211z"/><path fill="#e6e6e6" d="M498.845 143.982l-1.67.101.504 8.226-8.242-.099-.018 1.672 10.038.119-.612-10.019zm-71.064-67.656l-.018 1.672-8.241-.099.504 8.226-1.671.101-.61-10.02 10.036.12z"/><circle cx="458.6" cy="115.105" r="9.193" fill="#e6e6e6"/><path fill="#e6e6e6" d="M104.553 152.147l79.086-75.295 1.152 1.211-79.085 75.295z"/><path fill="#e6e6e6" d="M103.815 154.001l10.038-.119-.019-1.672-8.241.099.504-8.226-1.67-.101-.612 10.019zm81.712-77.795l-.611 10.02-1.67-.101.503-8.226-8.241.099-.018-1.672 10.037-.12z"/><circle cx="144.672" cy="115.105" r="9.193" fill="#e6e6e6"/><path d="M370.164 190.543H231.436a7.53 7.53 0 01-7.522-7.522V7.521A7.53 7.53 0 01231.436 0h138.728a7.53 7.53 0 017.522 7.521v175.5a7.53 7.53 0 01-7.522 7.522zM231.436 1.67a5.857 5.857 0 00-5.85 5.85v175.5a5.857 5.857 0 005.85 5.85h138.728a5.857 5.857 0 005.85-5.85V7.521a5.857 5.857 0 00-5.85-5.85z" fill="#3f3d56"/><path d="M289.26 84.358h-30.537a3.765 3.765 0 01-3.76-3.76V44.562a3.765 3.765 0 013.76-3.76h30.537a3.765 3.765 0 013.76 3.76v36.036a3.765 3.765 0 01-3.76 3.76z" fill="#6c63ff"/><path d="M348.596 101.073h-30.537a3.765 3.765 0 01-3.761-3.761V61.276a3.765 3.765 0 013.76-3.76h30.538a3.765 3.765 0 013.76 3.76v36.036a3.765 3.765 0 01-3.76 3.76z" fill="#ccc"/><path d="M300.96 152.051h-30.537a3.765 3.765 0 01-3.76-3.76v-36.036a3.765 3.765 0 013.76-3.76h30.537a3.765 3.765 0 013.76 3.76v36.036a3.765 3.765 0 01-3.76 3.76z" fill="#ff6584"/><path d="M594.079 371H455.35a7.53 7.53 0 01-7.521-7.521v-175.5a7.53 7.53 0 017.521-7.522h138.729a7.53 7.53 0 017.521 7.522v175.5a7.53 7.53 0 01-7.521 7.521zM455.35 182.129a5.857 5.857 0 00-5.85 5.85v175.5a5.857 5.857 0 005.85 5.85h138.729a5.857 5.857 0 005.85-5.85v-175.5a5.857 5.857 0 00-5.85-5.85z" fill="#3f3d56"/><path d="M548.532 219.318h-47.636a3.343 3.343 0 010-6.686h47.636a3.343 3.343 0 010 6.686z" fill="#6c63ff"/><path d="M571.932 251.075h-94.436a3.343 3.343 0 110-6.686h94.436a3.343 3.343 0 110 6.686zm0 17.55h-94.436a3.343 3.343 0 110-6.686h94.436a3.343 3.343 0 110 6.686zm0 17.55h-94.436a3.343 3.343 0 110-6.686h94.436a3.343 3.343 0 110 6.686zm0 17.55h-94.436a3.343 3.343 0 110-6.686h94.436a3.343 3.343 0 110 6.686zm0 17.55h-94.436a3.343 3.343 0 110-6.686h94.436a3.343 3.343 0 110 6.686zm0 17.55h-94.436a3.343 3.343 0 110-6.686h94.436a3.343 3.343 0 110 6.686z" fill="#ccc"/><path d="M146.25 371H7.521A7.53 7.53 0 010 363.479v-175.5a7.53 7.53 0 017.521-7.522H146.25a7.53 7.53 0 017.521 7.522v175.5A7.53 7.53 0 01146.25 371zM7.521 182.129a5.857 5.857 0 00-5.85 5.85v175.5a5.857 5.857 0 005.85 5.85H146.25a5.857 5.857 0 005.85-5.85v-175.5a5.857 5.857 0 00-5.85-5.85z" fill="#3f3d56"/><path d="M124.248 221.893H82.463a3.343 3.343 0 010-6.686h41.785a3.343 3.343 0 110 6.686zm0 17.55H82.463a3.343 3.343 0 010-6.686h41.785a3.343 3.343 0 110 6.686z" fill="#3f3d56"/><path d="M61.022 249.436H30.485a3.765 3.765 0 01-3.76-3.76v-36.037a3.765 3.765 0 013.76-3.76h30.537a3.765 3.765 0 013.76 3.76v36.036a3.765 3.765 0 01-3.76 3.76z" fill="#6c63ff"/><path d="M123.959 275.378H29.523a3.343 3.343 0 110-6.685h94.436a3.343 3.343 0 110 6.685zm0 17.55H29.523a3.343 3.343 0 110-6.685h94.436a3.343 3.343 0 110 6.685zm0 17.55H29.523a3.343 3.343 0 110-6.685h94.436a3.343 3.343 0 110 6.685zm0 17.55H29.523a3.343 3.343 0 110-6.685h94.436a3.343 3.343 0 110 6.685zm0 17.55H29.523a3.343 3.343 0 110-6.685h94.436a3.343 3.343 0 110 6.685z" fill="#ccc"/><path d="M198.695 472.719v-36.036a3.765 3.765 0 013.76-3.76h30.538a3.765 3.765 0 013.76 3.76v36.036a3.765 3.765 0 01-3.76 3.76h-30.537a3.765 3.765 0 01-3.76-3.76z" fill="#e6e6e6"/><path d="M209.695 460.719v-36.036a3.765 3.765 0 013.76-3.76h30.538a3.765 3.765 0 013.76 3.76v36.036a3.765 3.765 0 01-3.76 3.76h-30.537a3.765 3.765 0 01-3.76-3.76z" fill="#6c63ff"/><path d="M346.584 449.188a9.078 9.078 0 01-2.398-13.711l-9.466-69.188 19.718.968 3.096 67.485a9.127 9.127 0 01-10.95 14.446z" fill="#a0616a"/><path d="M357.144 368.179a3.705 3.705 0 01-1.505 1.064l-17.72 6.763a3.723 3.723 0 01-4.729-1.965l-15.696-35.275a14.74 14.74 0 01-.721-10.431 14.337 14.337 0 0110.912-9.782 13.673 13.673 0 015.89.083 14.28 14.28 0 0110.263 8.921l13.956 36.89a3.73 3.73 0 01-.65 3.732z" fill="#ccc"/><path fill="#a0616a" d="M264.807 618.06h-12.26l-4.445-47.511 16.707.224-.002 47.287z"/><path d="M243.79 614.557h23.644v14.887h-38.53a14.887 14.887 0 0114.886-14.887z" fill="#2f2e41"/><path fill="#a0616a" d="M321.807 618.06h-12.26l-5.832-47.288 18.094.001-.002 47.287z"/><path d="M300.79 614.557h23.644v14.887h-38.53a14.887 14.887 0 0114.886-14.887zm22.559-13.321l-19.255-1.426a4.506 4.506 0 01-4.163-4.27l-4.293-88.731a3.5 3.5 0 00-6.925-.533l-17.911 87.407a4.506 4.506 0 01-4.767 3.582l-17.406-1.393a4.5 4.5 0 01-4.119-4.932l16.148-161.477a4.5 4.5 0 015.434-3.95l61.406 13.35a4.511 4.511 0 013.543 4.48l-2.86 153.49a4.502 4.502 0 01-4.49 4.415c-.113 0-.227-.005-.342-.012z" fill="#2f2e41"/><circle cx="306.503" cy="269.888" r="24.561" fill="#a0616a"/><path d="M268.396 441.915a21.962 21.962 0 01-7.294-16.866c0-35.3 30.555-114.168 31.513-116.629.094-.593.9-.849 5.13-3.706 4.232-2.86 10.335-3.299 18.14-1.306a4.48 4.48 0 013.25 3.319l1.451 2.097a3.491 3.491 0 002.029 2.407c6.293 2.651 26.298 14.878 19.481 60.891-6.332 42.743-8.901 67.881-9.712 76.705a4.491 4.491 0 01-4.072 4.066c-3.085.276-8.382.643-14.69.643-14.62 0-34.675-1.972-45.226-11.62z" fill="#ccc"/><path d="M239.047 428.837a9.078 9.078 0 015.65-12.722l30.692-62.725 15.834 11.79-35.034 57.763a9.127 9.127 0 01-17.142 5.894z" fill="#a0616a"/><path d="M292.956 367.454a3.705 3.705 0 01-1.843.045l-18.482-4.258a3.723 3.723 0 01-2.832-4.266l6.623-38.038a14.74 14.74 0 015.213-9.064 14.337 14.337 0 0114.512-2.042 13.673 13.673 0 014.844 3.35 14.28 14.28 0 013.551 13.128l-8.967 38.408a3.73 3.73 0 01-2.619 2.737z" fill="#ccc"/><path d="M300.753 292.079a10.584 10.584 0 01-2.84-9.387c.857-4.48 1.36-7.41 1.455-8.476.327-3.648-3.36-6.6-7.01-7.07a7.271 7.271 0 00-.358-.04c.093.092.193.185.28.268.693.65 1.556 1.461 1.35 2.297-.123.503-.583.86-1.406 1.091-5.706 1.597-10.1.13-13.83-4.616a11.026 11.026 0 01-2.106-4.598c-1.336-6.555 2.224-12.143 5.446-15.676 2.657-2.913 6.964-6.449 12.394-6.752 4.224-.236 9.246 2.195 10.75 6.574a8.16 8.16 0 016.36-3.586 14.662 14.662 0 018.159 2.27c11.909 6.821 17.027 23.072 11.177 35.487-3.68 7.81-11.655 13.623-20.81 15.172a10.393 10.393 0 01-1.735.147 10.115 10.115 0 01-7.276-3.105z" fill="#2f2e41"/><path d="M185.579 630h195a1 1 0 000-2h-195a1 1 0 100 2z" fill="#3f3d56"/></svg>